Coordinates
version=1
nRows=60
nColumns=12
inDegrees=yes

Units are S.I. units (second, meters, Newtons, ...)
Angles are in degrees

endheader
time	SC_y	SC_z	SC_x	AC_y	AC_z	AC_x	GH_y	GH_z	GH_yy	EL_x	PS_y
       0.0              -25.82          25.96           68.9          44.39         -9.233          -12.0          104.1          12.19          45.62          24.71          146.6
  0.007729              -25.82          25.95           68.9          44.39         -9.232          -12.0          104.1          12.19           45.6          24.71          146.5
   0.01546              -25.83          25.95           68.9          44.39         -9.231          -12.0          104.1           12.2          45.59          24.72          146.5
   0.02319              -25.83          25.95           68.9           44.4          -9.23          -12.0          104.0          12.21          45.57          24.72          146.5
   0.03092              -25.84          25.95          68.89           44.4         -9.229          -12.0          104.0          12.21          45.55          24.72          146.5
   0.03865              -25.84          25.94          68.89           44.4         -9.228          -12.0          104.0          12.22          45.53          24.73          146.5
   0.04638              -25.85          25.94          68.89          44.41         -9.227          -12.0          103.9          12.23           45.5          24.73          146.5
   0.05411              -25.86          25.94          68.88          44.41         -9.226          -12.0          103.9          12.23          45.48          24.74          146.5
   0.06184              -25.86          25.93          68.88          44.42         -9.225          -12.0          103.9          12.24          45.45          24.74          146.4
   0.06956              -25.87          25.93          68.88          44.42         -9.224          -12.0          103.8          12.25          45.43          24.75          146.4
   0.07729              -25.88          25.93          68.87          44.42         -9.222          -12.0          103.8          12.26           45.4          24.75          146.4
   0.08502              -25.89          25.92          68.87          44.43         -9.221          -12.0          103.7          12.27          45.36          24.76          146.4
   0.09275               -25.9          25.92          68.87          44.44         -9.219          -12.0          103.7          12.28          45.33          24.77          146.4
    0.1005              -25.91          25.91          68.86          44.44         -9.218          -12.0          103.6          12.29          45.29          24.77          146.3
    0.1082              -25.92          25.91          68.86          44.45         -9.216          -12.0          103.6          12.31          45.25          24.78          146.3
    0.1159              -25.93           25.9          68.85          44.45         -9.214         -11.99          103.5          12.32          45.21          24.79          146.3
    0.1237              -25.95           25.9          68.84          44.46         -9.212         -11.99          103.4          12.34          45.16           24.8          146.2
    0.1314              -25.96          25.89          68.84          44.47         -9.209         -11.99          103.3          12.35          45.11          24.81          146.2
    0.1391              -25.98          25.88          68.83          44.48         -9.207         -11.99          103.3          12.37          45.05          24.82          146.2
    0.1469              -25.99          25.88          68.82          44.49         -9.204         -11.99          103.2          12.39          44.99          24.83          146.1
    0.1546              -26.01          25.87          68.81           44.5         -9.201         -11.99          103.1          12.41          44.92          24.85          146.1
    0.1623              -26.04          25.86           68.8          44.51         -9.197         -11.99          102.9          12.44          44.85          24.86          146.0
      0.17              -26.06          25.85          68.79          44.53         -9.194         -11.99          102.8          12.46          44.76          24.88          146.0
    0.1778              -26.08          25.83          68.78          44.54          -9.19         -11.99          102.7          12.49          44.67          24.89          145.9
    0.1855              -26.11          25.82          68.77          44.56         -9.185         -11.98          102.5          12.53          44.57          24.91          145.8
    0.1932              -26.15          25.81          68.75          44.58          -9.18         -11.98          102.3          12.56          44.45          24.94          145.7
     0.201              -26.18          25.79          68.74           44.6         -9.174         -11.98          102.2           12.6          44.33          24.96          145.6
    0.2087              -26.22          25.77          68.72          44.62         -9.167         -11.98          101.9          12.65          44.18          24.99          145.5
    0.2164              -26.27          25.75           68.7          44.65          -9.16         -11.98          101.7           12.7          44.02          25.02          145.4
    0.2242              -26.32          25.73          68.68          44.68         -9.152         -11.97          101.4          12.76          43.84          25.06          145.3
    0.2319              -26.38           25.7          68.65          44.71         -9.142         -11.97          101.1          12.83          43.62           25.1          145.2
    0.2396              -26.45          25.67          68.62          44.75         -9.131         -11.97          100.7          12.91          43.38          25.15          145.0
    0.2473              -26.53          25.64          68.58          44.79         -9.118         -11.96          100.3          12.99           43.1           25.2          144.8
    0.2551              -26.62          25.59          68.54          44.85         -9.104         -11.96           99.8           13.1          42.78          25.26          144.6
    0.2628              -26.72          25.55          68.49          44.91         -9.087         -11.95          99.23          13.22           42.4          25.34          144.3
    0.2705              -26.85          25.49          68.44          44.98         -9.066         -11.95          98.55          13.36          41.95          25.42          144.0
    0.2783               -27.0          25.42          68.37          45.07         -9.042         -11.94          97.74          13.53          41.42          25.53          143.6
     0.286              -27.18          25.34          68.29          45.17         -9.013         -11.93          96.77          13.74          40.78          25.65          143.2
    0.2937              -27.39          25.24          68.19          45.29         -8.978         -11.92           95.6          13.98          40.01           25.8          142.6
    0.3014              -27.66          25.12          68.07          45.45         -8.935          -11.9          94.17          14.28          39.07          25.99          142.0
    0.3092              -27.99          24.97          67.93          45.63         -8.883         -11.88           92.4          14.66          37.91          26.21          141.2
    0.3169              -28.39          24.79          67.74          45.87         -8.817         -11.86           90.2          15.12          36.46           26.5          140.1
    0.3246              -28.91          24.56          67.51          46.16         -8.734         -11.84          87.43          15.71          34.64          26.85          138.9
    0.3324              -29.56          24.26          67.22          46.54         -8.629          -11.8           83.9          16.45          32.32          27.31          137.2
    0.3401               -30.4          23.88          66.84          47.01         -8.494         -11.76          79.39           17.4          29.34          27.89          135.2
    0.3478              -31.47           23.4          66.36          47.63         -8.321          -11.7           73.6          18.62          25.53          28.63          132.5
    0.3556              -32.84          22.78          65.74          48.42           -8.1         -11.62           66.2          20.18          20.66          29.58          129.1
    0.3633              -34.56           22.0          64.96           49.4         -7.822         -11.53          56.89          22.14          14.54          30.78          124.8
     0.371              -36.66          21.05          64.02          50.61         -7.484         -11.42          45.56          24.53          7.082          32.23          119.6
    0.3787              -39.09          19.94          62.92           52.0         -7.091         -11.29          32.42          27.29         -1.566          33.92          113.5
    0.3865              -41.73          18.75          61.73          53.51         -6.666         -11.15          18.19          30.29         -10.93          35.75          107.0
    0.3942              -44.36          17.56          60.55          55.03         -6.242         -11.01           3.96          33.29         -20.29          37.58          100.4
    0.4019               -46.8          16.46          59.45          56.42         -5.849         -10.88          -9.18          36.06         -28.94          39.26          94.39
    0.4097              -48.89          15.51          58.51          57.62         -5.511         -10.76         -20.52          38.44          -36.4          40.72          89.17
    0.4174              -50.62          14.73          57.73          58.61         -5.233         -10.67         -29.82           40.4         -42.52          41.91          84.89
    0.4251              -51.99          14.11          57.11           59.4         -5.012          -10.6         -37.22          41.96         -47.39          42.86          81.48
    0.4328              -53.06          13.62          56.63          60.01         -4.839         -10.54         -43.01          43.18          -51.2          43.61          78.81
    0.4406              -53.89          13.24          56.25          60.49         -4.704          -10.5         -47.52          44.13         -54.17          44.19          76.74
    0.4483              -54.55          12.95          55.96          60.87         -4.599         -10.46         -51.05          44.88         -56.49          44.64          75.11
     0.456              -55.06          12.72          55.73          61.16         -4.516         -10.43         -53.82          45.46         -58.32           45.0          73.84
